<svg width="24" height="24" viewBox="0 0 24 24" fill="none" xmlns="http://www.w3.org/2000/svg">
<g clip-path="url(#clip0_46_11)">
<path d="M9.136 17.288C11.2938 17.288 13.3632 16.4308 14.889 14.905C16.4148 13.3792 17.272 11.3098 17.272 9.15199C17.272 6.99419 16.4148 4.92477 14.889 3.39897C13.3632 1.87317 11.2938 1.01599 9.136 1.01599C6.9782 1.01599 4.90878 1.87317 3.38298 3.39897C1.85718 4.92477 1 6.99419 1 9.15199C1 11.3098 1.85718 13.3792 3.38298 14.905C4.90878 16.4308 6.9782 17.288 9.136 17.288Z" fill="#66E1FF"/>
<path d="M10.767 6.96001L13.244 9.43401C13.3328 9.52278 13.4382 9.5932 13.5541 9.64125C13.6701 9.68929 13.7944 9.71402 13.92 9.71402C14.0455 9.71402 14.1699 9.68929 14.2858 9.64125C14.4018 9.5932 14.5072 9.52278 14.596 9.43401L16.986 7.04301C16.5216 5.31058 15.4973 3.7804 14.0726 2.69086C12.6479 1.60132 10.9028 1.01362 9.10925 1.01933C7.31568 1.02503 5.57437 1.62383 4.15662 2.72241C2.73887 3.82099 1.7243 5.35766 1.27099 7.09301C0.969662 8.24377 0.924532 9.44664 1.13879 10.6167C1.35304 11.7868 1.82146 12.8957 2.51099 13.865L9.41999 6.96001C9.59911 6.78194 9.84142 6.68199 10.094 6.68199C10.3466 6.68199 10.5879 6.78194 10.767 6.96001Z" fill="#C2F3FF"/>
<path d="M1.49599 11.94C0.814169 10.0762 0.837668 8.02728 1.56206 6.17956C2.28645 4.33183 3.66169 2.8129 5.42857 1.90904C7.19545 1.00519 9.23193 0.778851 11.1541 1.27269C13.0764 1.76653 14.7516 2.94644 15.864 4.59001M14.882 14.903L17.114 17.133" stroke="#191919" stroke-linecap="round" stroke-linejoin="round"/>
<path d="M22.522 20.518C22.6617 20.6497 22.7736 20.8081 22.851 20.9839C22.9284 21.1596 22.9697 21.3491 22.9725 21.5412C22.9753 21.7332 22.9395 21.9238 22.8673 22.1017C22.7951 22.2797 22.6879 22.4413 22.5521 22.5771C22.4163 22.7128 22.2546 22.82 22.0766 22.8921C21.8986 22.9642 21.708 22.9999 21.516 22.997C21.324 22.9941 21.1345 22.9527 20.9588 22.8752C20.783 22.7977 20.6247 22.6858 20.493 22.546L16.773 18.826C16.594 18.6466 16.4934 18.4034 16.4934 18.15C16.4934 17.8965 16.594 17.6534 16.773 17.474L17.45 16.798C17.6294 16.6189 17.8725 16.5184 18.126 16.5184C18.3795 16.5184 18.6226 16.6189 18.802 16.798L22.522 20.518Z" fill="#C77F67" stroke="#191919" stroke-linecap="round" stroke-linejoin="round"/>
<path d="M1.00201 15.371L9.41901 6.96096C9.59843 6.78192 9.84155 6.68137 10.095 6.68137C10.3485 6.68137 10.5916 6.78192 10.771 6.96096L13.244 9.43496C13.3328 9.52389 13.4383 9.59443 13.5543 9.64257C13.6704 9.6907 13.7948 9.71548 13.9205 9.71548C14.0462 9.71548 14.1706 9.6907 14.2867 9.64257C14.4028 9.59443 14.5082 9.52389 14.597 9.43496L23 1.02496" stroke="#191919" stroke-linecap="round" stroke-linejoin="round"/>
<path d="M20.13 1.02496H23V3.89496M17.25 9.65196C17.1587 11.152 16.6535 12.5975 15.7903 13.8277C14.9271 15.058 13.7399 16.0249 12.3603 16.6211C10.9808 17.2173 9.46303 17.4195 7.97554 17.2051C6.48805 16.9908 5.08908 16.3684 3.93399 15.407" stroke="#191919" stroke-linecap="round" stroke-linejoin="round"/>
</g>
<defs>
<clipPath id="clip0_46_11">
<rect width="24" height="24" fill="white"/>
</clipPath>
</defs>
</svg>
