<svg width="26" height="26" viewBox="0 0 26 26" fill="none" xmlns="http://www.w3.org/2000/svg">
<rect width="26" height="26" rx="13" fill="url(#paint0_linear_57_12)"/>
<path opacity="0.9" d="M8.93756 19V7H12.8809C12.984 7 13.1873 7.00278 13.4908 7.00833C13.8001 7.01389 14.0979 7.03333 14.3843 7.06667C15.3637 7.18889 16.1913 7.52778 16.8671 8.08333C17.5487 8.63333 18.0641 9.33611 18.4135 10.1917C18.7629 11.0472 18.9376 11.9833 18.9376 13C18.9376 14.0167 18.7629 14.9528 18.4135 15.8083C18.0641 16.6639 17.5487 17.3694 16.8671 17.925C16.1913 18.475 15.3637 18.8111 14.3843 18.9333C14.1037 18.9667 13.8087 18.9861 13.4994 18.9917C13.1901 18.9972 12.984 19 12.8809 19H8.93756ZM11.0424 17.1083H12.8809C13.0527 17.1083 13.2703 17.1028 13.5338 17.0917C13.803 17.0806 14.0407 17.0556 14.2468 17.0167C14.831 16.9111 15.3064 16.6583 15.673 16.2583C16.0395 15.8583 16.3087 15.3722 16.4805 14.8C16.6581 14.2278 16.7468 13.6278 16.7468 13C16.7468 12.35 16.6581 11.7389 16.4805 11.1667C16.303 10.5944 16.0281 10.1139 15.6558 9.725C15.2892 9.33611 14.8196 9.08889 14.2468 8.98333C14.0407 8.93889 13.803 8.91389 13.5338 8.90833C13.2703 8.89722 13.0527 8.89167 12.8809 8.89167H11.0424V17.1083Z" fill="white"/>
<defs>
<linearGradient id="paint0_linear_57_12" x1="-8.28859" y1="14.4943" x2="26.0146" y2="13.9846" gradientUnits="userSpaceOnUse">
<stop stop-color="#4F39F6"/>
<stop offset="1" stop-color="#9514FA"/>
</linearGradient>
</defs>
</svg>
